<?xml version="1.0" encoding="utf-8"?>
<!-- Generator: Adobe Illustrator 16.0.0, SVG Export Plug-In . SVG Version: 6.00 Build 0)  -->
<!DOCTYPE svg PUBLIC "-//W3C//DTD SVG 1.1//EN" "http://www.w3.org/Graphics/SVG/1.1/DTD/svg11.dtd">
<svg version="1.1" id="레이어_1" xmlns="http://www.w3.org/2000/svg" xmlns:xlink="http://www.w3.org/1999/xlink" x="0px"
	 y="0px" width="31.181px" height="31.181px" viewBox="0 0 31.181 31.181" enable-background="new 0 0 31.181 31.181"
	 xml:space="preserve">
<g>
	<defs>
		<rect id="SVGID_1_" x="2.37" y="0.373" width="26.441" height="30.436"/>
	</defs>
	<clipPath id="SVGID_2_">
		<use xlink:href="#SVGID_1_"  overflow="visible"/>
	</clipPath>
	<path clip-path="url(#SVGID_2_)" fill="#ffffff" d="M12.095,12.681c0.965,0,1.747-0.783,1.747-1.747
		c0-0.966-0.782-1.748-1.747-1.748s-1.747,0.782-1.747,1.748C10.348,11.898,11.13,12.681,12.095,12.681"/>
	<path clip-path="url(#SVGID_2_)" fill="#ffffff" d="M19.087,12.833c0.964,0,1.745-0.782,1.745-1.746
		c0-0.966-0.781-1.748-1.745-1.748c-0.967,0-1.748,0.782-1.748,1.748C17.339,12.051,18.12,12.833,19.087,12.833"/>
	<path clip-path="url(#SVGID_2_)" fill="#ffffff" d="M20.858,16.599c0.19-0.468-0.031-1-0.496-1.189
		c-0.469-0.194-0.998,0.03-1.19,0.496c-0.606,1.477-2.011,2.431-3.582,2.431c-1.569,0-2.975-0.954-3.582-2.431
		c-0.19-0.466-0.722-0.691-1.189-0.496c-0.465,0.19-0.688,0.722-0.496,1.189c0.888,2.163,2.955,3.562,5.267,3.562
		C17.903,20.16,19.97,18.762,20.858,16.599"/>
	<path clip-path="url(#SVGID_2_)" fill="#ffffff" d="M28.811,13.593c0-7.29-5.931-13.221-13.221-13.221
		c-7.289,0-13.22,5.931-13.22,13.221c0,7.29,5.931,13.22,13.22,13.22v3.995c0,0,7.497-4.189,10.807-9.607l-0.018,0.006
		C27.905,19.053,28.811,16.43,28.811,13.593 M5.105,13.593c0-5.781,4.704-10.485,10.485-10.485c5.782,0,10.486,4.704,10.486,10.485
		S21.372,24.077,15.59,24.077C9.809,24.077,5.105,19.374,5.105,13.593"/>
</g>
</svg>
