<?xml version="1.0" encoding="utf-8"?>
<!-- Generator: Adobe Illustrator 21.0.0, SVG Export Plug-In . SVG Version: 6.00 Build 0)  -->
<svg version="1.1" id="Layer_1" xmlns="http://www.w3.org/2000/svg" xmlns:xlink="http://www.w3.org/1999/xlink" x="0px" y="0px"
	 viewBox="0 0 566.9 226.8" style="enable-background:new 0 0 566.9 226.8;" xml:space="preserve">
<style type="text/css">
	.st0{fill:#3D407D;}
	.st1{fill:none;stroke:#3A3D77;stroke-width:1.1896;}
	.st2{fill:#FFFFFF;}
</style>
<g>
	<path class="st0" d="M211.3,94.1h28.4v10.1h-34.4c-1.9,0-3.3-0.4-4.1-1.2c-0.9-1-1.4-2.6-1.4-4.9v-48h32.4v10.1h-20.8V94.1z
		 M253.1,81.8h-4.7v37.5h-10.7V50.1h10.7v21.4h4.7V50.1H264v69.2h-10.9V81.8z"/>
	<path class="st0" d="M300.4,78.3v-6.2h11.5v6.2h28.7v10.1h-68.9V78.3H300.4z M279.6,74.1c-1.9,0-3.3-0.4-4.1-1.3
		c-0.9-1-1.4-2.6-1.4-4.9V50.1h64.2v9.6h-52.7v4.6h52.7v9.6h-26.8H279.6z M322.4,86.8c5.2,4,7.8,8.9,7.8,14.8
		c0,6.3-2.5,11.6-7.5,15.8c-4.7,3.9-10.2,5.9-16.4,5.9c-6.4,0-12-2-16.7-5.9c-5-4.2-7.5-9.5-7.5-15.8c0-5.9,2.6-10.9,7.8-14.8
		c4.8-3.7,10.2-5.5,16.4-5.5C312.3,81.3,317.7,83.1,322.4,86.8z M297.5,93c-2.5,2.3-3.7,5.2-3.7,8.5c0,3.4,1.2,6.2,3.7,8.4
		c2.4,2.3,5.3,3.4,8.7,3.4c3.3,0,6.2-1.1,8.7-3.4c2.5-2.3,3.8-5.1,3.8-8.4c0-3.3-1.3-6.2-3.8-8.5c-2.5-2.2-5.4-3.3-8.7-3.3
		C302.8,89.7,299.9,90.8,297.5,93z"/>
	<path class="st0" d="M360.7,94.1h28.4v10.1h-34.4c-1.9,0-3.3-0.4-4.1-1.2c-0.9-1-1.4-2.6-1.4-4.9v-48h32.4v10.1h-20.8V94.1z
		 M402.5,81.8h-4.7v37.5h-10.7V50.1h10.7v21.4h4.7V50.1h10.9v69.2h-10.9V81.8z"/>
	<path class="st0" d="M460.3,62.2c0.8,1.1,1.3,2.2,1.7,3.3c0.5,1.3,0.7,2.6,0.7,3.9c0,5-1.9,9.1-5.8,12.4c-3.6,3.1-7.9,4.6-12.9,4.6
		c-5,0-9.4-1.5-13.1-4.6c-3.9-3.3-5.9-7.4-5.9-12.4c0-1.3,0.2-2.6,0.6-3.8c0.4-1.2,1-2.3,1.8-3.4h-4.7v-9.5h15.2v-6.3h12.2v6.3h15
		v9.5H460.3z M487.1,119.4h-11.4V99.9h-49V89.8h60.4V119.4z M438.6,64.3c-1.5,1.4-2.3,3.1-2.3,5.2c0,1.9,0.8,3.6,2.3,5
		c1.5,1.5,3.3,2.2,5.4,2.2c2.1,0,3.8-0.7,5.4-2.2c1.5-1.4,2.3-3.1,2.3-5c0-2.1-0.8-3.8-2.3-5.2c-1.5-1.4-3.3-2-5.4-2
		C441.9,62.3,440.1,63,438.6,64.3z M487.1,71.1v13.2h-11.4V50.1h11.4V61h9.2v10.1H487.1z"/>
	<path class="st0" d="M520.2,105.6h8.1V77.1h11.4v28.5h27.2v10.1H498v-10.1h10.9V77.1h11.4V105.6z M550,111.8V60.3h-47.9V50.1h59.4
		v61.6H550z"/>
	<g>
		<path class="st0" d="M201.6,177.6v-28.2h8.9c4,0,7.2,1.3,9.7,4c2.5,2.6,3.7,6.1,3.7,10.2c0,2.4-0.5,4.6-1.4,6.6
			c-0.9,2-2.3,3.6-4,4.9c-1.3,1-2.8,1.7-4.4,2c-1.2,0.3-2.8,0.4-4.7,0.4H201.6z M210.3,172.8c2.7,0,4.8-0.8,6.4-2.4
			c1.5-1.6,2.3-3.8,2.3-6.6c0-3-0.8-5.3-2.4-6.9c-1.6-1.6-3.9-2.4-6.9-2.4h-3.2v18.4H210.3z"/>
		<path class="st0" d="M231.8,177.7h-5.2l10.5-28.2h4.4l10.5,28.2h-5.4l-2.8-7.8h-9.1L231.8,177.7z M239.3,156.9l-2.8,7.9h5.5
			L239.3,156.9z"/>
		<path class="st0" d="M255.4,177.7v-28.2H270v4.9h-9.7v6.8h9.7v4.8h-9.7v6.8h9.7v5H255.4z"/>
		<path class="st0" d="M274.4,177.6v-28.2h8.9c4,0,7.2,1.3,9.7,4c2.5,2.6,3.7,6.1,3.7,10.2c0,2.4-0.5,4.6-1.4,6.6
			c-0.9,2-2.3,3.6-4,4.9c-1.3,1-2.8,1.7-4.4,2c-1.2,0.3-2.8,0.4-4.7,0.4H274.4z M283.1,172.8c2.7,0,4.8-0.8,6.4-2.4
			c1.5-1.6,2.3-3.8,2.3-6.6c0-3-0.8-5.3-2.4-6.9c-1.6-1.6-3.9-2.4-6.9-2.4h-3.2v18.4H283.1z"/>
		<path class="st0" d="M302,157.7c0.7-1.8,1.7-3.4,3.1-4.8c1.3-1.3,2.8-2.3,4.3-3c1.6-0.7,3.4-1,5.2-1c1.8,0,3.6,0.3,5.2,1
			c1.6,0.7,3.1,1.7,4.4,3.1c1.3,1.4,2.4,3,3.1,4.7c0.7,1.8,1.1,3.7,1.1,5.6c0,2-0.3,3.8-1,5.5c-0.6,1.7-1.5,3.2-2.6,4.6
			c-1.4,1.5-2.9,2.7-4.6,3.5c-1.7,0.8-3.6,1.2-5.6,1.2c-2,0-3.8-0.4-5.6-1.3c-1.7-0.8-3.3-2-4.6-3.6c-1.1-1.4-1.9-2.9-2.5-4.6
			c-0.6-1.7-0.9-3.5-0.9-5.4C300.9,161.4,301.3,159.5,302,157.7z M306.6,167.1c0.4,1.2,1,2.2,1.8,3c0.8,0.9,1.8,1.6,2.9,2.1
			c1,0.5,2.1,0.7,3.3,0.7c2.5,0,4.6-0.9,6.3-2.8c1.7-1.8,2.5-4.1,2.5-6.9c0-1.2-0.2-2.3-0.6-3.3c-0.4-1.1-1-2-1.8-2.9
			c-0.9-1.1-1.9-1.8-2.9-2.3c-1-0.5-2.2-0.7-3.5-0.7c-1.2,0-2.3,0.2-3.2,0.6c-1,0.4-1.9,1.1-2.7,2c-0.9,0.9-1.5,2-2,3.1
			c-0.4,1.2-0.7,2.4-0.7,3.6C306,164.7,306.2,166,306.6,167.1z"/>
		<path class="st0" d="M333.2,177.7v-28.2h4.7l11.5,18.6v-18.6h4.9v28.2h-4.5l-11.6-19.1v19.1H333.2z"/>
		<path class="st0" d="M386.6,162.8c-0.2,4.7-1.6,8.4-4.2,11.3c-2.5,2.8-5.7,4.1-9.5,4.1c-2,0-3.8-0.4-5.6-1.3
			c-1.7-0.8-3.3-2-4.6-3.6c-1.1-1.4-2-2.9-2.5-4.6c-0.6-1.7-0.9-3.5-0.9-5.4c0-2,0.4-3.8,1.1-5.6c0.7-1.8,1.7-3.4,3.1-4.8
			c1.3-1.4,2.7-2.4,4.4-3.1c1.6-0.7,3.4-1,5.4-1c2.7,0,5.1,0.7,7.2,2.1c2.1,1.5,3.7,3.6,5,6.5h-5.8c-0.9-1.2-1.9-2.1-3-2.6
			c-1.1-0.5-2.3-0.8-3.7-0.8c-1.2,0-2.2,0.2-3.2,0.6c-1,0.4-1.9,1.1-2.7,2c-0.9,0.9-1.5,2-2,3.1c-0.4,1.2-0.7,2.4-0.7,3.6
			c0,1.3,0.2,2.6,0.6,3.7c0.4,1.2,1,2.2,1.8,3c0.8,0.9,1.8,1.6,2.9,2.1c1,0.5,2.1,0.7,3.3,0.7c1.7,0,3.2-0.4,4.5-1.3
			c1.3-0.9,2.3-2.2,3.1-3.9H372v-5.1H386.6z"/>
		<path class="st0" d="M423.3,176.1c-2.1,1.4-4.4,2.1-7.1,2.1c-2,0-3.9-0.4-5.6-1.3c-1.7-0.8-3.3-2-4.6-3.6
			c-1.1-1.4-1.9-2.9-2.5-4.6c-0.6-1.7-0.9-3.5-0.9-5.4c0-2,0.4-3.8,1.1-5.6c0.7-1.8,1.7-3.4,3.1-4.8c1.3-1.3,2.7-2.3,4.3-3
			c1.6-0.7,3.3-1,5.2-1c2.7,0,5.2,0.7,7.3,2.2c2.2,1.5,3.8,3.7,5.1,6.6h-5.6c-0.9-1.3-1.9-2.2-3-2.8c-1.1-0.5-2.4-0.8-3.8-0.8
			c-1.2,0-2.3,0.2-3.2,0.6c-1,0.4-1.9,1.1-2.7,2c-0.9,0.9-1.6,2-2,3.1c-0.4,1.2-0.7,2.4-0.7,3.6c0,1.3,0.2,2.6,0.6,3.7
			c0.4,1.2,1,2.2,1.9,3c0.8,0.9,1.7,1.6,2.8,2.1c1.1,0.5,2.2,0.7,3.3,0.7c1.4,0,2.6-0.3,3.7-0.9c1.1-0.6,2.1-1.4,2.9-2.6h5.8
			C427.1,172.5,425.4,174.6,423.3,176.1z"/>
		<path class="st0" d="M433.7,157.7c0.7-1.8,1.7-3.4,3.1-4.8c1.3-1.3,2.8-2.3,4.3-3c1.6-0.7,3.4-1,5.2-1c1.8,0,3.6,0.3,5.2,1
			c1.6,0.7,3.1,1.7,4.4,3.1c1.3,1.4,2.4,3,3.1,4.7c0.7,1.8,1.1,3.7,1.1,5.6c0,2-0.3,3.8-1,5.5c-0.6,1.7-1.5,3.2-2.6,4.6
			c-1.4,1.5-2.9,2.7-4.6,3.5c-1.7,0.8-3.6,1.2-5.6,1.2c-2,0-3.8-0.4-5.6-1.3c-1.7-0.8-3.3-2-4.6-3.6c-1.1-1.4-1.9-2.9-2.5-4.6
			c-0.6-1.7-0.9-3.5-0.9-5.4C432.6,161.4,433,159.5,433.7,157.7z M438.3,167.1c0.4,1.2,1,2.2,1.8,3c0.8,0.9,1.8,1.6,2.9,2.1
			c1,0.5,2.1,0.7,3.3,0.7c2.5,0,4.6-0.9,6.3-2.8c1.7-1.8,2.5-4.1,2.5-6.9c0-1.2-0.2-2.3-0.6-3.3c-0.4-1.1-1-2-1.8-2.9
			c-0.9-1.1-1.9-1.8-2.9-2.3c-1-0.5-2.2-0.7-3.5-0.7c-1.2,0-2.3,0.2-3.2,0.6c-1,0.4-1.9,1.1-2.7,2c-0.9,0.9-1.5,2-2,3.1
			c-0.4,1.2-0.7,2.4-0.7,3.6C437.7,164.7,437.9,166,438.3,167.1z"/>
		<path class="st0" d="M464.9,177.7v-28.2h4.9v23.2h8.4v5H464.9z"/>
		<path class="st0" d="M482.6,177.7v-28.2h4.9v23.2h8.4v5H482.6z"/>
		<path class="st0" d="M500.3,177.7v-28.2h14.6v4.9h-9.7v6.8h9.7v4.8h-9.7v6.8h9.7v5H500.3z"/>
		<path class="st0" d="M545.8,162.8c-0.2,4.7-1.6,8.4-4.2,11.3c-2.5,2.8-5.7,4.1-9.5,4.1c-2,0-3.8-0.4-5.6-1.3
			c-1.7-0.8-3.3-2-4.6-3.6c-1.1-1.4-1.9-2.9-2.5-4.6c-0.6-1.7-0.9-3.5-0.9-5.4c0-2,0.3-3.8,1.1-5.6c0.7-1.8,1.7-3.4,3.1-4.8
			c1.3-1.4,2.7-2.4,4.4-3.1c1.6-0.7,3.4-1,5.4-1c2.7,0,5.1,0.7,7.2,2.1c2.1,1.5,3.7,3.6,5,6.5h-5.8c-0.9-1.2-1.9-2.1-3-2.6
			c-1.1-0.5-2.3-0.8-3.7-0.8c-1.1,0-2.2,0.2-3.2,0.6c-1,0.4-1.9,1.1-2.7,2c-0.9,0.9-1.5,2-2,3.1c-0.4,1.2-0.7,2.4-0.7,3.6
			c0,1.3,0.2,2.6,0.6,3.7c0.4,1.2,1,2.2,1.8,3c0.8,0.9,1.8,1.6,2.9,2.1c1,0.5,2.1,0.7,3.3,0.7c1.7,0,3.2-0.4,4.5-1.3
			c1.3-0.9,2.3-2.2,3.1-3.9h-8.4v-5.1H545.8z"/>
		<path class="st0" d="M550.6,177.7v-28.2h14.6v4.9h-9.7v6.8h9.7v4.8h-9.7v6.8h9.7v5H550.6z"/>
	</g>
	<circle class="st1" cx="87.5" cy="113.3" r="86.7"/>
	<circle class="st0" cx="87.7" cy="113.4" r="59.5"/>
	<g>
		<g>
			<path class="st2" d="M123.8,142.6H51.9v-13.5H38.4V97.7h13.5V84.2h71.9v13.5h13.5v31.4h-13.5V142.6z M56.3,138.2h63.2v-13.5H133
				v-22.7h-13.5V88.6H56.3v13.5H42.8v22.7h13.5V138.2z"/>
		</g>
		<g>
			<polygon class="st2" points="119.4,124.6 87.9,124.6 87.9,120.3 115,120.3 115,115.6 56.4,115.6 56.4,102.2 87.9,102.2 
				87.9,106.5 60.7,106.5 60.7,111.2 119.4,111.2 			"/>
		</g>
	</g>
	<g>
		<g>
			<path class="st0" d="M24.2,64.1l-2.5,2.7l9.7,9.1l3.9-4.1l-11.7-11l2.2-2.3l6,5.6l1.6-1.7l-6-5.6l2.2-2.3l15.1,14.2L42.5,71
				L35.1,64l-1.6,1.7l7.4,7L38.7,75l-1.8-1.7l-4.2,4.5c-0.7,0.7-1.3,1-2,1.1c-0.6,0-1.2-0.3-1.8-0.8L17.8,67.6l4.7-5L24.2,64.1z"/>
		</g>
		<g>
			<path class="st0" d="M58.2,37.7l-11.6,6.7l1.4,2.4L59.8,40l1.2,2l-5.8,3.4l0.9,1.5l6.5-3.8l1.2,2l-16.2,9.4l-1.2-2l6.9-4L52.4,47
				l-3.7,2.1c-0.8,0.4-1.5,0.6-2.1,0.4c-0.6-0.2-1-0.6-1.4-1.2L42.7,44l14.3-8.3L58.2,37.7z M62.2,49c1.6,0,2.6,0.5,3.2,1.4
				c0.5,0.9,0.4,2.1-0.4,3.4c-0.9,1.5-2.4,2.9-4.6,4.1c-2.2,1.3-4.2,1.9-5.9,1.9c-1.5,0-2.6-0.5-3.1-1.4c-0.6-1-0.5-2.1,0.3-3.5
				c0.9-1.5,2.4-2.9,4.6-4.1C58.5,49.6,60.4,49,62.2,49z M54.6,55.2c-0.5,0.7-0.7,1.2-0.5,1.6c0.2,0.4,0.8,0.5,1.6,0.4
				c1-0.1,2.1-0.6,3.5-1.4c1.3-0.8,2.3-1.5,2.9-2.3c0.5-0.7,0.7-1.2,0.5-1.6c-0.2-0.4-0.8-0.5-1.6-0.4c-0.9,0.2-2.1,0.6-3.4,1.4
				C56.2,53.7,55.2,54.5,54.6,55.2z"/>
		</g>
		<g>
			<path class="st0" d="M83.9,32.6l-3.7,0L80.4,46l5.7-0.1l-0.2-16l3.2,0l0.1,8.2l2.4,0l-0.1-8.2l3.2,0l0.2,20.8l-3.2,0l-0.1-10.1
				l-2.4,0l0.1,10.1l-3.2,0l0-2.4l-6.1,0.1c-0.9,0-1.7-0.2-2.1-0.7c-0.4-0.4-0.6-1-0.6-1.9L77,30.4l6.9-0.1L83.9,32.6z"/>
		</g>
		<g>
			<path class="st0" d="M125.1,52.8l-3.4,6.8l-2.9-1.4l2.4-4.7l-11.5-5.8l1.1-2.1L125.1,52.8z M118.9,36.3l0.6-1.2l2.9,1.4l-0.6,1.2
				l3.9,2l-1,2l-2.9-1.5c1.1,0.9,1.6,1.9,1.7,3c0.1,1-0.2,1.9-1,2.7c-0.7,0.7-1.6,1.2-2.8,1.3c-1.3,0.1-2.7-0.2-4.2-0.9
				c-1.5-0.7-2.6-1.7-3.2-2.9c-0.6-1-0.8-2-0.6-3c0.3-1.1,0.8-1.9,1.6-2.4c0.9-0.5,2-0.6,3.4-0.4l-2.9-1.5l1-2L118.9,36.3z
				 M116.3,39.8c-0.6,0.2-1.1,0.5-1.3,1.1c-0.3,0.5-0.3,1.1-0.1,1.7c0.3,0.7,0.8,1.3,1.6,1.7c0.8,0.4,1.6,0.5,2.4,0.3
				c0.7-0.2,1.1-0.5,1.4-1.1c0.3-0.6,0.3-1.1,0-1.7c-0.3-0.7-0.8-1.2-1.7-1.6C117.8,39.8,117,39.7,116.3,39.8z M131,41.1l-2.2,4.4
				l1.9,1l-1.1,2.1l-1.9-1l-2,4l-2.9-1.4l5.3-10.5L131,41.1z"/>
		</g>
		<g>
			<path class="st0" d="M143.7,79.4L131,65.9l1.7-1.6l1.6,1.7l6.8-6.4l2.2,2.3l-6.8,6.4l1.7,1.8l6.8-6.4l2.2,2.3l-6.8,6.4l5,5.3
				L143.7,79.4z M156.7,65.8l-5.7,5.4c-1.1,1.1-2.3,2-3.5,2.9c-1.2,0.9-2.4,1.6-3.6,2.2l-2.1-2.2c1.1-0.5,2.1-1.1,3.1-1.8
				c1.1-0.7,2.1-1.6,3.1-2.6l4.7-4.4l-9.2-9.7l1.9-1.8L156.7,65.8z"/>
		</g>
	</g>
	<path class="st0" d="M110.3,54.1C110.3,54.1,110.3,54.1,110.3,54.1C110.3,54.1,110.3,54.1,110.3,54.1
		C110.3,54.1,110.3,54.1,110.3,54.1z"/>
	<path class="st0" d="M108.9,54.8C108.8,54.8,108.8,54.8,108.9,54.8C108.8,54.9,108.8,54.9,108.9,54.8
		C108.9,54.9,108.9,54.9,108.9,54.8z"/>
	<path class="st0" d="M21.8,110.7l0.4,6.4c0.1,2.2-0.6,3.8-2.2,4.9c-1.2,0.8-2.7,1.3-4.6,1.4c-2,0.1-3.8-0.2-5.2-0.9
		c-1.9-0.9-2.9-2.5-3-4.6l-0.4-6.3L21.8,110.7z M9.5,114.5l0.2,3c0.1,1.1,0.7,2,1.8,2.4c0.9,0.4,2.1,0.6,3.5,0.5
		c2-0.1,3.3-0.6,4-1.4c0.5-0.5,0.7-1.3,0.6-2.2l-0.2-2.9L9.5,114.5z"/>
	<path class="st0" d="M9.2,132.2l-0.9-3.1l15.9,0.8l1,3.4l-12.9,9.3l-0.9-3.2l2.7-1.8l-1.6-5.3L9.2,132.2z M15.2,132.4l1.1,3.7
		l5.2-3.5l0-0.1L15.2,132.4z"/>
	<polygon class="st0" points="30.9,150.9 27,144.2 24.2,145.8 27.8,151.9 25.5,153.3 22,147.1 18.6,149.1 22.7,156.1 20.4,157.4 
		14.8,147.9 27.7,140.3 33.2,149.5 	"/>
	<path class="st0" d="M34.9,151.8l4.5,4.6c1.5,1.6,2,3.3,1.6,5.2c-0.4,1.4-1.2,2.8-2.5,4.1c-1.5,1.4-3,2.3-4.5,2.7
		c-2,0.5-3.8,0-5.3-1.5l-4.4-4.6L34.9,151.8z M28,162.6l2.1,2.1c0.8,0.8,1.8,1,2.9,0.7c1-0.3,2-0.9,3-1.9c1.4-1.4,2.1-2.6,2.1-3.7
		c0-0.7-0.3-1.4-1-2.1l-2-2.1L28,162.6z"/>
	<path class="st0" d="M46.4,165.5c1.5-0.1,2.9,0.3,4.3,1.1c1.4,0.8,2.3,1.9,2.9,3.3c0.9,2.1,0.5,4.5-1.1,7.1
		c-1.6,2.6-3.5,3.9-5.8,4.1c-1.5,0.1-2.9-0.2-4.3-1.1c-1.4-0.8-2.3-2-2.9-3.3c-0.9-2.1-0.5-4.4,1.1-7
		C42.2,167,44.1,165.6,46.4,165.5L46.4,165.5z M42.1,175.5c0.2,1,0.8,1.7,1.7,2.2c0.9,0.5,1.8,0.7,2.7,0.5c1.2-0.3,2.4-1.2,3.3-2.8
		c1-1.6,1.3-3,1-4.3c-0.2-0.9-0.8-1.7-1.6-2.2c-0.9-0.5-1.8-0.7-2.7-0.5c-1.2,0.3-2.3,1.3-3.3,2.8C42.2,172.8,41.8,174.2,42.1,175.5
		L42.1,175.5z"/>
	<polygon class="st0" points="68.4,176.1 71,177.1 65.4,191.1 62.6,190 61.1,177.8 61,177.8 57.1,187.8 54.4,186.7 60,172.7 
		63,173.9 64.5,185.8 64.5,185.8 	"/>
	<path class="st0" d="M80.3,185.4l6.1,0.8l-1,7.9l-2.7-0.3l0.2-1.9c-0.1,0.5-0.5,1-1.3,1.3c-0.9,0.4-2,0.6-3.2,0.4
		c-1.9-0.2-3.3-1.1-4.4-2.5c-1.1-1.6-1.6-3.6-1.3-6c0.3-2.2,1.1-3.9,2.4-5.2c1.5-1.4,3.4-2,5.7-1.7c2,0.3,3.6,1,4.6,2.3
		c0.8,1.1,1.2,2.2,1.2,3.5l-3-0.4c0-0.2,0-0.4-0.1-0.7c-0.1-0.3-0.3-0.6-0.5-0.9c-0.3-0.3-0.6-0.6-0.9-0.8c-0.4-0.3-0.9-0.4-1.4-0.5
		c-1.2-0.1-2.2,0.1-3.1,0.9c-1,0.8-1.5,2.1-1.8,3.9c-0.2,1.8,0,3.2,0.8,4.2c0.6,0.8,1.6,1.2,2.8,1.4c0.8,0.1,1.5,0,2.2-0.2
		c1.1-0.4,1.7-1.2,1.9-2.5l-3.4-0.4L80.3,185.4z"/>
	<path class="st0" d="M107.4,181.5c-0.3-0.7-0.7-1.2-1-1.5c-0.7-0.5-1.5-0.7-2.6-0.5c-0.9,0.2-1.7,0.6-2.2,1.4
		c-0.7,1-0.8,2.5-0.5,4.3c0.3,1.4,0.7,2.5,1.5,3.3c0.8,0.9,1.8,1.2,3,1c0.8-0.2,1.5-0.5,1.9-1.1c0.5-0.6,0.7-1.3,0.7-2.3l3-0.6
		c0,1.7-0.5,3.2-1.3,4.3c-0.9,1.2-2.2,2-3.9,2.3c-2,0.4-3.7,0-5.1-1.1c-1.5-1.2-2.4-3-2.9-5.5c-0.4-2.5-0.2-4.5,0.9-6.1
		c1-1.5,2.4-2.5,4.3-2.8c1.9-0.4,3.6,0,5,0.9c1.1,0.8,1.8,1.9,2.2,3.2L107.4,181.5z"/>
	<path class="st0" d="M114.5,174.6c0.7-1.3,1.9-2.2,3.3-2.9c1.5-0.6,2.9-0.8,4.4-0.5c2.2,0.5,4,2.1,5.2,4.9c1.2,2.8,1.3,5.1,0.1,7.1
		c-0.8,1.3-1.9,2.3-3.3,2.9c-1.5,0.6-2.9,0.8-4.4,0.5c-2.2-0.5-3.9-2.1-5.2-4.9C113.4,179,113.4,176.6,114.5,174.6L114.5,174.6z
		 M120.3,183.8c0.9,0.4,1.8,0.3,2.8-0.1c0.9-0.4,1.6-1.1,1.9-2c0.5-1.2,0.3-2.6-0.4-4.3c-0.8-1.7-1.7-2.8-2.9-3.3
		c-0.9-0.4-1.8-0.3-2.8,0.1c-0.9,0.4-1.6,1.1-2,2c-0.4,1.2-0.3,2.6,0.5,4.4C118.2,182.3,119.1,183.3,120.3,183.8L120.3,183.8z"/>
	<polygon class="st0" points="136.4,174.3 142.1,169.9 143.8,172.1 135.7,178.4 126.5,166.5 128.9,164.6 	"/>
	<polygon class="st0" points="147.8,163.7 152.3,158.1 154.5,159.8 148,167.8 136.3,158.4 138.2,156 	"/>
	<polygon class="st0" points="151.1,139.7 147.7,146.7 150.6,148 153.7,141.6 156,142.8 153,149.2 156.5,150.9 160,143.6 
		162.3,144.7 157.6,154.7 144,148.2 148.7,138.5 	"/>
	<path class="st0" d="M158,130.4l1.4-6l7.8,1.8l-0.6,2.7l-1.8-0.4c0.5,0.1,0.9,0.6,1.2,1.4c0.3,0.9,0.4,2,0.1,3.3
		c-0.4,1.8-1.4,3.2-3,4.1c-1.7,1-3.7,1.2-6.1,0.7c-2.2-0.5-3.8-1.5-5-2.9c-1.3-1.6-1.7-3.6-1.2-5.8c0.5-2,1.4-3.5,2.8-4.4
		c1.1-0.7,2.3-1,3.6-0.8l-0.7,3c-0.2,0-0.4,0-0.7,0.1c-0.3,0.1-0.6,0.2-0.9,0.4c-0.4,0.2-0.7,0.5-0.9,0.8c-0.3,0.4-0.5,0.9-0.6,1.4
		c-0.3,1.2-0.1,2.2,0.6,3.1c0.7,1,2,1.7,3.7,2.1c1.8,0.4,3.2,0.3,4.2-0.4c0.8-0.6,1.4-1.4,1.7-2.6c0.2-0.8,0.2-1.5,0-2.2
		c-0.3-1.1-1.1-1.8-2.3-2.1l-0.8,3.3L158,130.4z"/>
	<polygon class="st0" points="155.9,109.2 155.6,116.9 158.8,117 159.1,110 161.7,110.1 161.4,117.2 165.3,117.3 165.7,109.3 
		168.3,109.4 167.8,120.5 152.8,119.8 153.3,109 	"/>
	<g>
		<g>
			<g>
				<path class="st2" d="M69,148.9h3.1v11H70v-9.1h-2.3L69,148.9z"/>
				<path class="st2" d="M81.5,160.2l-1.8-0.9l1.9-3.8c-0.9,0-1.7-0.3-2.4-1c-0.7-0.7-1-1.5-1-2.5c0-1,0.3-1.8,1-2.4
					c0.7-0.7,1.5-1,2.4-1c1,0,1.8,0.3,2.5,1c0.7,0.7,1,1.5,1,2.4c0,0.3-0.1,0.7-0.2,1c-0.1,0.3-0.3,0.9-0.7,1.6L81.5,160.2z
					 M81.7,153.6c0.4,0,0.7-0.1,1-0.4c0.3-0.3,0.4-0.6,0.4-1.1c0-0.4-0.1-0.8-0.4-1.1c-0.3-0.3-0.6-0.4-1-0.4c-0.4,0-0.7,0.1-1,0.4
					c-0.3,0.3-0.4,0.6-0.4,1.1c0,0.4,0.1,0.8,0.4,1.1C81,153.4,81.3,153.6,81.7,153.6z"/>
			</g>
			<g>
				<path class="st2" d="M89.1,148.9h7.2v1.1l-5,10.2l-1.8-0.9l4.1-8.5h-4.6V148.9z"/>
			</g>
		</g>
		<g>
			<g>
				<path class="st2" d="M100.5,150.1c0.7-1,1.7-1.5,2.9-1.5c0.8,0,1.5,0.2,2.1,0.6c0.6,0.4,1,1,1.4,1.8c0.3,0.8,0.5,1.9,0.5,3.4
					c0,1.5-0.2,2.6-0.5,3.4c-0.3,0.8-0.8,1.4-1.3,1.8c-0.5,0.4-1.2,0.6-2.1,0.6s-1.5-0.2-2.1-0.6c-0.6-0.4-1-1-1.3-1.8
					c-0.3-0.8-0.5-1.9-0.5-3.4C99.5,152.5,99.8,151,100.5,150.1L100.5,150.1z M103.4,150.6c-0.4,0-0.7,0.1-0.9,0.3
					c-0.3,0.2-0.5,0.6-0.6,1.2c-0.1,0.6-0.2,1.4-0.2,2.4c0,1.4,0.2,2.4,0.5,2.9c0.3,0.5,0.8,0.8,1.3,0.8c0.5,0,0.9-0.3,1.2-0.8
					c0.4-0.6,0.5-1.6,0.5-3.1c0-1.5-0.2-2.5-0.5-3C104.4,150.9,103.9,150.6,103.4,150.6z"/>
			</g>
		</g>
	</g>
	<polygon class="st2" points="67.7,150.8 70,150.8 70,159.9 72.1,159.9 72.1,148.9 69,148.9 	"/>
	<path class="st2" d="M80.7,153.1c-0.3-0.3-0.4-0.6-0.4-1.1c0-0.4,0.1-0.8,0.4-1.1c0.3-0.3,0.6-0.4,1-0.4c0.4,0,0.7,0.1,1,0.4
		c0.3,0.3,0.4,0.6,0.4,1.1c0,0.4-0.1,0.8-0.4,1.1c-0.3,0.3-0.6,0.4-1,0.4C81.3,153.6,81,153.4,80.7,153.1z M84.3,154.6
		c0.4-0.7,0.6-1.2,0.7-1.6c0.1-0.3,0.2-0.7,0.2-1c0-0.9-0.3-1.7-1-2.4c-0.7-0.7-1.5-1-2.5-1c-0.9,0-1.8,0.3-2.4,1
		c-0.7,0.7-1,1.5-1,2.4c0,1,0.3,1.8,1,2.5c0.7,0.7,1.4,1,2.4,1l-1.9,3.8l1.8,0.9L84.3,154.6z"/>
	<polygon class="st2" points="89.2,150.8 93.8,150.8 89.6,159.3 91.4,160.2 96.4,150 96.4,148.9 89.2,148.9 	"/>
	<path class="st2" d="M104.7,151.4c0.3,0.5,0.5,1.6,0.5,3c0,1.4-0.2,2.4-0.5,3.1c-0.3,0.5-0.7,0.8-1.2,0.8c-0.5,0-1-0.3-1.3-0.8
		c-0.3-0.5-0.5-1.5-0.5-2.9c0-1.1,0.1-1.9,0.2-2.4c0.1-0.6,0.4-0.9,0.6-1.2c0.3-0.2,0.6-0.3,0.9-0.3
		C104,150.6,104.4,150.9,104.7,151.4z M100.5,150.1c-0.6,0.9-0.9,2.4-0.9,4.4c0,1.4,0.2,2.6,0.5,3.4c0.3,0.8,0.8,1.4,1.3,1.8
		c0.6,0.4,1.3,0.6,2.1,0.6c0.8,0,1.5-0.2,2.1-0.6c0.5-0.4,1-1,1.3-1.8c0.3-0.8,0.5-2,0.5-3.4c0-1.5-0.2-2.6-0.5-3.4
		c-0.3-0.8-0.8-1.4-1.4-1.8c-0.6-0.4-1.3-0.6-2.1-0.6C102.2,148.6,101.2,149.1,100.5,150.1z"/>
</g>
</svg>
