<?xml version="1.0" encoding="utf-8"?>
<!-- Generator: Adobe Illustrator 16.0.0, SVG Export Plug-In . SVG Version: 6.00 Build 0)  -->
<!DOCTYPE svg PUBLIC "-//W3C//DTD SVG 1.1//EN" "http://www.w3.org/Graphics/SVG/1.1/DTD/svg11.dtd">
<svg version="1.1" id="레이어_1" xmlns="http://www.w3.org/2000/svg" xmlns:xlink="http://www.w3.org/1999/xlink" x="0px"
	 y="0px" width="85.04px" height="85.04px" viewBox="0 0 85.04 85.04" enable-background="new 0 0 85.04 85.04"
	 xml:space="preserve">
<g>
	<defs>
		<rect id="SVGID_1_" x="2.09" y="128.6" width="73.463" height="60.442"/>
	</defs>
	<clipPath id="SVGID_2_">
		<use xlink:href="#SVGID_1_"  overflow="visible"/>
	</clipPath>
	<path clip-path="url(#SVGID_2_)" fill="#FFFFFF" d="M49.379,183.668l-1.055-2.906c0.418-0.021,1.744-0.052,2.158-0.093
		c12.635-1.263,22.162-11.802,22.162-24.519c0-13.586-11.055-24.642-24.643-24.642c-5.883,0-11.852,2.106-16.309,5.929l-1.072-2.574
		c4.986-4.274,10.805-6.264,17.381-6.264c15.191,0,27.551,12.359,27.551,27.551c0,14.218-10.654,26.002-24.779,27.413
		C50.311,183.611,49.846,183.645,49.379,183.668"/>
	<path clip-path="url(#SVGID_2_)" fill="#FFFFFF" d="M51.014,156.782c0,1.967-1.594,3.562-3.563,3.562
		c-1.965,0-3.559-1.595-3.559-3.562c0-1.965,1.594-3.561,3.559-3.561C49.42,153.221,51.014,154.817,51.014,156.782"/>
	<path clip-path="url(#SVGID_2_)" fill="#FFFFFF" d="M60.624,164.473c-0.164,0-0.33-0.034-0.488-0.108l-17.541-8.228
		c-0.576-0.271-0.824-0.955-0.553-1.531c0.268-0.573,0.951-0.822,1.529-0.551l17.541,8.228c0.574,0.269,0.822,0.954,0.553,1.529
		C61.469,164.229,61.055,164.473,60.624,164.473"/>
	<path clip-path="url(#SVGID_2_)" fill="#FFFFFF" d="M47.645,159.676c-0.623,0-1.135-0.498-1.148-1.123l-0.428-18.404
		c-0.014-0.635,0.488-1.161,1.123-1.178h0.027c0.623,0,1.135,0.498,1.148,1.123l0.428,18.405c0.014,0.635-0.488,1.162-1.123,1.177
		H47.645z"/>
	<path clip-path="url(#SVGID_2_)" fill="#FFFFFF" d="M48.706,134.93c-0.012,0.727-0.611,1.305-1.336,1.292
		c-0.729-0.011-1.307-0.61-1.293-1.336c0.012-0.726,0.609-1.306,1.336-1.293C48.139,133.605,48.717,134.204,48.706,134.93"/>
	<path clip-path="url(#SVGID_2_)" fill="#FFFFFF" d="M59.596,138.363c-0.387,0.615-1.197,0.802-1.813,0.416
		s-0.801-1.197-0.418-1.812c0.389-0.617,1.199-0.803,1.814-0.416C59.795,136.936,59.981,137.748,59.596,138.363"/>
	<path clip-path="url(#SVGID_2_)" fill="#FFFFFF" d="M66.934,146.542c-0.643,0.34-1.438,0.095-1.777-0.546
		c-0.34-0.643-0.096-1.438,0.547-1.778c0.643-0.34,1.438-0.095,1.777,0.546C67.821,145.407,67.577,146.203,66.934,146.542"/>
	<path clip-path="url(#SVGID_2_)" fill="#FFFFFF" d="M69.202,157.295c-0.727-0.027-1.293-0.637-1.268-1.361
		c0.027-0.727,0.637-1.294,1.363-1.267c0.725,0.026,1.291,0.636,1.266,1.36C70.536,156.754,69.926,157.321,69.202,157.295"/>
	<path clip-path="url(#SVGID_2_)" fill="#FFFFFF" d="M65.788,167.741c-0.615-0.386-0.803-1.197-0.416-1.813
		c0.385-0.615,1.197-0.802,1.811-0.416c0.617,0.387,0.803,1.197,0.416,1.813C67.213,167.941,66.403,168.126,65.788,167.741"/>
	<path clip-path="url(#SVGID_2_)" fill="#FFFFFF" d="M57.608,175.08c-0.34-0.642-0.096-1.437,0.547-1.777
		c0.641-0.34,1.436-0.096,1.777,0.546c0.34,0.643,0.096,1.438-0.547,1.777C58.743,175.965,57.948,175.721,57.608,175.08"/>
	<path clip-path="url(#SVGID_2_)" fill="#FFFFFF" d="M46.854,177.345c0.025-0.726,0.637-1.292,1.363-1.266
		c0.725,0.026,1.293,0.636,1.266,1.362c-0.027,0.726-0.637,1.293-1.361,1.266C47.395,178.681,46.829,178.072,46.854,177.345"/>
	<path clip-path="url(#SVGID_2_)" fill="#FFFFFF" d="M38.397,137.215c0.34,0.643,0.096,1.438-0.545,1.777
		c-0.643,0.34-1.438,0.096-1.779-0.547c-0.34-0.642-0.095-1.438,0.547-1.776C37.261,136.329,38.057,136.573,38.397,137.215"/>
	<path clip-path="url(#SVGID_2_)" fill="#FFFFFF" d="M23.975,166.228h-0.364c-6.215,0-11.271-5.056-11.271-11.271v-5.611
		c0-6.214,5.056-11.27,11.271-11.27h0.364c6.215,0,11.271,5.056,11.271,11.27v5.611C35.246,161.172,30.19,166.228,23.975,166.228
		 M23.611,141.077c-4.561,0-8.271,3.709-8.271,8.27v5.611c0,4.561,3.71,8.271,8.271,8.271h0.364c4.561,0,8.271-3.71,8.271-8.271
		v-5.611c0-4.561-3.71-8.27-8.271-8.27H23.611z"/>
	<path clip-path="url(#SVGID_2_)" fill="#FFFFFF" d="M43.997,189.042c-0.828,0-1.5-0.672-1.5-1.5v-0.956
		c0-11.922-6.159-19.932-15.326-19.932h-6.756c-9.166,0-15.325,8.01-15.325,19.932v0.956c0,0.828-0.672,1.5-1.5,1.5
		s-1.5-0.672-1.5-1.5v-0.956c0-13.502,7.535-22.932,18.325-22.932h6.756c10.791,0,18.326,9.43,18.326,22.932v0.956
		C45.497,188.371,44.825,189.042,43.997,189.042"/>
</g>
<path fill="#FFFFFF" d="M-337.972-26.796h-6.059c3.244-0.89,5.682-4.554,5.682-8.931c0-5.492-3.617-7.951-7.205-7.951
	c-3.586,0-7.207,2.459-7.207,7.951c0,4.377,2.439,8.041,5.684,8.931h-4.105l-3.828,0.025c-0.041,0-0.082,0.003-0.121,0.007
	c-1.885,0.196-3.541,1.311-4.43,2.98l-0.809,1.518c-3.93-2.594-8.57-4.188-13.564-4.418v-4.118c0-0.69-0.559-1.25-1.25-1.25
	c-17.811,0-32.303,14.491-32.303,32.302c0,0.691,0.561,1.25,1.25,1.25h4.119c0.656,14.291,12.484,25.717,26.934,25.717
	c7.644,0,14.549-3.201,19.46-8.328l0.192,6.047c0.121,3.859,3.361,7,7.219,7h5.152c3.854,0,7.113-3.137,7.266-6.992l0.658-16.686
	c3.92-1.178,6.785-4.816,6.785-9.115v-16.42C-328.453-22.527-332.722-26.796-337.972-26.796z M-350.261-35.727
	c0-3.362,1.805-5.451,4.707-5.451s4.705,2.089,4.705,5.451c0,3.662-2.109,6.641-4.705,6.641S-350.261-32.065-350.261-35.727z
	 M-376.435-29.527v4.062V-1H-400.9h-4.061C-404.322-16.442-391.876-28.887-376.435-29.527z M-375.185,24.717
	c-13.07,0-23.781-10.305-24.434-23.217h24.434c0.691,0,1.25-0.559,1.25-1.25v-24.434c4.568,0.231,8.808,1.726,12.383,4.134
	l-9.836,18.453c-1.473,2.768-0.422,6.219,2.346,7.695c0.82,0.436,1.744,0.668,2.668,0.668c2.109,0,4.033-1.156,5.023-3.014
	l4.857-9.113l0.652,20.566C-360.321,20.984-367.323,24.717-375.185,24.717z M-330.953-0.857c0,2.859-1.721,5.32-4.18,6.414
	l0.881-22.312c0.027-0.689-0.51-1.271-1.199-1.298c-0.699-0.048-1.271,0.51-1.299,1.2l-0.908,23l-0.098,2.504l-0.639,16.195
	c-0.102,2.531-2.24,4.59-4.768,4.59h-5.152c-2.521,0-4.641-2.055-4.721-4.58L-353.316,16l-0.144-4.52l-0.597-18.817l-0.156-4.923
	c0.025,0.014,0.047,0.03,0.07,0.046c-0.023-0.04-0.049-0.078-0.072-0.118l-0.143-4.513c0-0.007-0.005-0.013-0.006-0.021
	c-0.027-0.58-0.45-1.04-1.001-1.145c-0.094-0.018-0.183-0.049-0.282-0.044c-0.689,0.021-1.232,0.599-1.209,1.289l0.027,0.861
	l0.175,5.525l-6.903,12.954c-0.557,1.041-1.635,1.689-2.818,1.689c-0.523,0-1.025-0.127-1.492-0.375
	c-1.551-0.826-2.141-2.762-1.314-4.313l9.65-18.108l1.199-2.248l0.975-1.83c0.49-0.919,1.395-1.538,2.428-1.663l16.957-0.025
	c3.871,0,7.02,3.148,7.02,7.019V-0.857z"/>
<path fill="#FFFFFF" d="M81.51,46.047L65.428,34.682c-0.383-0.27-0.883-0.304-1.297-0.088c-0.414,0.215-0.676,0.643-0.676,1.109
	v5.263c-2.207,0.252-4.319,0.811-6.301,1.62V31.891c0-4.938-4.018-8.956-8.955-8.956h-5.117c2.802-1.063,4.852-4.352,4.852-8.238
	c0-5.177-3.416-7.494-6.801-7.494s-6.801,2.317-6.801,7.494c0,3.887,2.049,7.176,4.852,8.238h-5.117c-1.11,0-2.17,0.213-3.152,0.584
	c-3.102-2.635-6.953-4.42-11.215-4.933v-4.516c0-0.467-0.26-0.895-0.674-1.109c-0.416-0.215-0.916-0.181-1.297,0.088L3.532,23.083
	c-0.332,0.234-0.529,0.615-0.529,1.021s0.197,0.786,0.529,1.021l14.197,10.033c0.381,0.27,0.881,0.303,1.297,0.09
	c0.414-0.215,0.674-0.643,0.674-1.11v-4.169c1.906,0.263,3.731,0.818,5.428,1.619c-0.004,0.102-0.016,0.202-0.016,0.305v15.301
	c0,4.023,2.667,7.436,6.326,8.561l0.611,15.486c0.145,3.639,3.219,6.598,6.855,6.598h4.799c3.643,0,6.699-2.965,6.814-6.607
	l0.362-11.436c3.325-3.367,7.728-5.646,12.575-6.271v4.91c0,0.467,0.262,0.895,0.676,1.109s0.914,0.182,1.297-0.088L81.51,48.088
	c0.33-0.234,0.527-0.615,0.527-1.02C82.038,46.663,81.84,46.282,81.51,46.047z M36.833,14.697c0-3.081,1.648-4.994,4.301-4.994
	s4.301,1.913,4.301,4.994c0,3.364-1.93,6.103-4.301,6.103C38.801,20.799,36.833,18.004,36.833,14.697z M18.532,27.338
	c-0.027-0.002-0.055-0.003-0.082-0.003c-0.316,0-0.621,0.12-0.854,0.338C17.344,27.91,17.2,28.24,17.2,28.585v3.137L6.418,24.103
	L17.2,16.485v3.241c0,0.659,0.512,1.204,1.17,1.247c3.836,0.25,7.338,1.663,10.201,3.861c-1.374,1.073-2.428,2.535-2.992,4.223
	C23.38,28.102,21.006,27.5,18.532,27.338z M48.02,71.151c-0.072,2.307-2.01,4.186-4.316,4.186h-4.799
	c-2.311,0-4.266-1.883-4.357-4.195l-0.592-14.998l-0.1-2.506l-0.579-14.706l-0.175-4.42l-0.088-2.229
	c-0.025-0.689-0.602-1.215-1.297-1.199c-0.587,0.023-1.039,0.453-1.152,1.003c-0.021,0.098-0.053,0.191-0.049,0.296l0.125,3.148
	l0.689,17.502c-2.193-1.033-3.719-3.26-3.719-5.84V32.995v-1.104c0-0.585,0.084-1.149,0.23-1.688
	c0.416-1.528,1.373-2.834,2.66-3.689c0.74-0.492,1.59-0.831,2.502-0.983c0.348-0.058,0.7-0.095,1.063-0.095H48.2
	c3.561,0,6.455,2.896,6.455,6.456v11.9v2.91v0.49c0,2.518-1.451,4.697-3.558,5.762l0.112-3.518L51.318,46l0.433-13.629
	c0.021-0.69-0.52-1.268-1.209-1.289c-0.705-0.029-1.268,0.519-1.289,1.209l-0.511,16.092l-0.13,4.096l-0.037,1.15l-0.078,2.504
	l-0.084,2.633l-0.135,4.219L48.02,71.151z M65.956,56.018v-3.871c0-0.346-0.143-0.676-0.395-0.912
	c-0.252-0.238-0.592-0.355-0.936-0.336c-5.107,0.334-9.84,2.313-13.635,5.424l0.02-0.633c3.564-1.184,6.145-4.543,6.145-8.498
	v-1.879c2.344-1.092,4.916-1.777,7.633-1.955c0.658-0.043,1.168-0.59,1.168-1.248v-3.993l12.666,8.952L65.956,56.018z"/>
<g>
	<path fill="#FFFFFF" d="M292.157,38.7c0.445,0.133,0.932,0.008,1.258-0.326c0.324-0.336,0.436-0.824,0.289-1.268l-8.197-24.509
		c-0.129-0.385-0.436-0.684-0.824-0.801s-0.811-0.038-1.131,0.213l-20.363,15.91c-0.369,0.287-0.545,0.756-0.459,1.215
		s0.42,0.832,0.867,0.967l6.592,1.984c-2.418,5.639-6.574,10.24-11.678,13.291V32.983c0-5.463-4.445-9.908-9.906-9.908H241.7
		c3.639-0.643,6.451-4.61,6.451-9.408c0-5.709-3.76-8.264-7.484-8.264c-3.727,0-7.486,2.555-7.486,8.264
		c0,4.798,2.813,8.766,6.451,9.408h-6.902c-5.463,0-9.906,4.444-9.906,9.908v17.186c0,4.488,3.002,8.283,7.102,9.496l0.691,17.514
		c0.158,4.004,3.543,7.26,7.547,7.26h5.393c0.184,0,0.366-0.014,0.548-0.027c0.048,0.006,0.089,0.027,0.138,0.027h11.156
		c0.689,0,1.25-0.559,1.25-1.25V69.409c0-0.689-0.561-1.25-1.25-1.25h-4.058l0.271-8.553c2.126-0.68,3.942-2.059,5.177-3.865
		c12.406-0.127,23.658-7.73,28.418-19.133L292.157,38.7z M235.68,13.667c0-3.555,1.91-5.764,4.986-5.764
		c3.074,0,4.984,2.209,4.984,5.764c0,3.865-2.236,7.01-4.984,7.01C237.917,20.677,235.68,17.532,235.68,13.667z M254.147,70.659
		v11.279h-5.041h-3.615v-0.402V70.659h3.268h2.502H254.147z M248.838,68.159h-4.598c-0.689,0-1.25,0.561-1.25,1.25v12.529h-4.828
		c-2.678,0-4.943-2.18-5.049-4.859l-0.672-17.018l-0.1-2.506l-0.951-24.127c-0.027-0.689-0.609-1.232-1.299-1.199
		c-0.689,0.027-1.227,0.607-1.199,1.297l0.925,23.451c-2.641-1.133-4.495-3.758-4.495-6.809V32.983c0-4.084,3.322-7.408,7.406-7.408
		h15.875c4.084,0,7.406,3.323,7.406,7.408v13.742c-1.301,0.613-2.652,1.123-4.039,1.537l0.467-14.744
		c0.023-0.691-0.52-1.268-1.209-1.289c-0.703-0.035-1.268,0.52-1.289,1.209l-0.49,15.441c-1.814,0.363-3.673,0.57-5.564,0.57
		c-0.676,0-1.359-0.023-2.033-0.072c-0.594-0.041-1.119,0.326-1.287,0.887c-0.168,0.559,0.074,1.162,0.584,1.449
		c2.02,1.139,4.154,2.051,6.342,2.709c0.585,0.176,1.176,0.322,1.768,0.463l-0.084,2.66l-0.079,2.506L248.838,68.159z
		 M251.698,56.889l0.047-1.508c0.623,0.096,1.248,0.164,1.874,0.223C253.051,56.127,252.405,56.561,251.698,56.889z M283.295,34.641
		c-3.975,10.643-14.002,17.928-25.262,18.551c-0.518,0.027-1.033,0.061-1.557,0.061c-0.376,0-0.752-0.027-1.128-0.043
		c-1.181-0.047-2.356-0.162-3.524-0.355c-0.834-0.137-1.662-0.318-2.484-0.529c-0.377-0.098-0.756-0.184-1.129-0.297
		c-0.287-0.086-0.574-0.178-0.861-0.273c0.678-0.078,1.351-0.182,2.018-0.303c0.852-0.154,1.69-0.348,2.52-0.57
		c1.412-0.381,2.787-0.861,4.123-1.43c0.853-0.365,1.684-0.771,2.5-1.209c6.547-3.508,11.816-9.301,14.516-16.524
		c0.121-0.324,0.104-0.684-0.051-0.993s-0.428-0.542-0.76-0.642l-5.586-1.682l17.066-13.335l6.871,20.542l-5.74-1.729
		C284.196,33.692,283.526,34.024,283.295,34.641z"/>
	<path fill="#FFFFFF" d="M275.081,58.971h-11.154c-0.691,0-1.25,0.561-1.25,1.25v22.967c0,0.691,0.559,1.25,1.25,1.25h11.154
		c0.691,0,1.25-0.559,1.25-1.25V60.221C276.331,59.532,275.772,58.971,275.081,58.971z M273.831,81.938h-8.654V61.471h8.654V81.938z
		"/>
	<path fill="#FFFFFF" d="M294.766,47.817h-11.154c-0.691,0-1.25,0.561-1.25,1.25v34.121c0,0.691,0.559,1.25,1.25,1.25h11.154
		c0.691,0,1.25-0.559,1.25-1.25V49.067C296.016,48.377,295.458,47.817,294.766,47.817z M293.516,81.938h-8.654V50.317h8.654V81.938z
		"/>
</g>
<g>
	<path fill="#FFFFFF" d="M360.92,40.872c-0.691,0-1.25-0.561-1.25-1.25v-2.665c0-5.817-5.156-10.551-11.494-10.551h-3.717
		c-6.336,0-11.492,4.733-11.492,10.551v2.665c0,0.689-0.561,1.25-1.25,1.25c-0.691,0-1.25-0.561-1.25-1.25v-2.665
		c0-7.196,6.277-13.051,13.992-13.051h3.717c7.717,0,13.994,5.854,13.994,13.051v2.665C362.17,40.311,361.61,40.872,360.92,40.872z"
		/>
	<path fill="#FFFFFF" d="M346.319,23.973c-4.613,0-8.369-4.792-8.369-10.682c0-6.394,4.205-9.256,8.369-9.256
		c4.166,0,8.367,2.862,8.367,9.256C354.686,19.181,350.934,23.973,346.319,23.973z M346.319,6.535c-3.564,0-5.869,2.651-5.869,6.756
		c0,4.512,2.633,8.182,5.869,8.182s5.867-3.67,5.867-8.182C352.186,9.187,349.883,6.535,346.319,6.535z"/>
	<path fill="#FFFFFF" d="M346.319,83.069c-0.354,0-0.689-0.148-0.928-0.412L334.272,70.34c-0.332-0.367-0.416-0.895-0.215-1.346
		s0.648-0.742,1.143-0.742h4.84V46.62c0-0.691,0.561-1.25,1.25-1.25h10.057c0.691,0,1.25,0.559,1.25,1.25v21.633h4.842
		c0.494,0,0.941,0.291,1.143,0.742s0.117,0.979-0.215,1.346l-11.119,12.316C347.01,82.92,346.672,83.069,346.319,83.069z
		 M338.012,70.752l8.307,9.201l8.307-9.201h-3.279c-0.689,0-1.25-0.559-1.25-1.25V47.868h-7.557v21.635
		c0,0.691-0.559,1.25-1.25,1.25H338.012z"/>
	<path fill="#FFFFFF" d="M402.1,83.069c-0.691,0-1.25-0.559-1.25-1.25v-2.662c0-5.816-5.156-10.551-11.492-10.551h-3.717
		c-6.338,0-11.494,4.734-11.494,10.551v2.662c0,0.691-0.561,1.25-1.25,1.25c-0.691,0-1.25-0.559-1.25-1.25v-2.662
		c0-7.195,6.277-13.051,13.994-13.051h3.717c7.715,0,13.992,5.855,13.992,13.051v2.662C403.35,82.51,402.79,83.069,402.1,83.069z"/>
	<path fill="#FFFFFF" d="M387.5,66.17c-4.615,0-8.369-4.791-8.369-10.68c0-6.393,4.203-9.254,8.369-9.254
		c4.164,0,8.367,2.861,8.367,9.254C395.868,61.379,392.114,66.17,387.5,66.17z M387.5,48.735c-3.566,0-5.869,2.652-5.869,6.756
		c0,4.512,2.633,8.18,5.869,8.18c3.234,0,5.867-3.668,5.867-8.18C393.368,51.387,391.065,48.735,387.5,48.735z"/>
	<path fill="#FFFFFF" d="M392.53,41.739h-10.059c-0.691,0-1.25-0.561-1.25-1.25V18.854h-4.842c-0.494,0-0.941-0.291-1.143-0.742
		s-0.117-0.979,0.215-1.346l11.121-12.318c0.236-0.263,0.574-0.412,0.928-0.412l0,0c0.354,0,0.689,0.149,0.928,0.412l10.998,12.186
		c0.283,0.229,0.463,0.579,0.463,0.971c0,0.69-0.561,1.25-1.25,1.25c-0.004,0-0.012,0.001-0.02,0h-4.84v21.635
		C393.78,41.178,393.219,41.739,392.53,41.739z M383.721,39.239h7.559V17.604c0-0.69,0.559-1.25,1.25-1.25h3.277L387.5,7.15
		l-8.309,9.203h3.279c0.689,0,1.25,0.56,1.25,1.25V39.239z"/>
</g>
<g>
	<defs>
		<rect id="SVGID_3_" x="112.663" y="123.426" width="73.928" height="60.348"/>
	</defs>
	<clipPath id="SVGID_4_">
		<use xlink:href="#SVGID_3_"  overflow="visible"/>
	</clipPath>
	<path clip-path="url(#SVGID_4_)" fill="#FFFFFF" d="M179.208,130.756c-4.74-4.729-11.02-7.328-17.688-7.328h-0.027
		c-0.004,0-0.008,0-0.012,0h-0.02c-0.002,0-0.004,0-0.006,0c-3.381,0.008-6.662,0.682-9.752,2.004
		c-0.711,0.303-1.039,1.125-0.736,1.836c0.305,0.713,1.125,1.043,1.838,0.738c2.313-0.99,4.752-1.545,7.26-1.705v11.75l-4.963,0.01
		c-0.773,0.002-1.398,0.631-1.396,1.404c0.002,0.771,0.629,1.396,1.4,1.396h0.002l4.957-0.012v15.244h-2.252
		c-0.773,0-1.4,0.625-1.4,1.4c0,0.771,0.627,1.398,1.4,1.398h2.252v13.16c0,0.773,0.627,1.4,1.398,1.4
		c0.02,0,0.035-0.004,0.053-0.006c0.02,0.002,0.037,0.006,0.057,0.006h0.002c6.695-0.016,12.986-2.625,17.709-7.346
		c4.727-4.725,7.32-10.998,7.305-17.666C186.575,141.77,183.954,135.491,179.208,130.756 M181.157,138l-6.131,0.016
		c-1.129-4.092-2.893-7.588-5.076-10.131c2.686,1.102,5.158,2.736,7.279,4.854C178.813,134.317,180.129,136.09,181.157,138
		 M173.612,148.471c0.006,2.646-0.258,5.209-0.744,7.623h-9.932l-0.035-15.25l9.926-0.023
		C173.327,143.219,173.606,145.799,173.612,148.471 M162.969,170.481l-0.025-11.588h9.244c-0.596,2.021-1.365,3.895-2.309,5.547
		C167.95,167.829,165.536,169.913,162.969,170.481 M162.895,138.043l-0.025-11.658c3.943,0.873,7.383,5.402,9.252,11.637
		L162.895,138.043z M177.303,164.127c-2.076,2.076-4.498,3.689-7.133,4.795c0.766-0.908,1.484-1.938,2.143-3.096
		c1.168-2.049,2.088-4.4,2.77-6.934h6.115C180.178,160.795,178.875,162.557,177.303,164.127 M182.401,156.163
		c-0.131-0.041-0.268-0.068-0.41-0.068h-6.27c0.453-2.436,0.697-5,0.691-7.629c-0.006-2.668-0.264-5.238-0.73-7.652l6.709-0.016
		c0.898,2.424,1.393,4.998,1.398,7.652C183.795,151.125,183.303,153.723,182.401,156.163"/>
	<path clip-path="url(#SVGID_4_)" fill="#FFFFFF" d="M138.229,156.842h-0.432c-7.188,0-13.033-5.846-13.033-13.033v-6.625
		c0-7.186,5.846-13.033,13.033-13.033h0.432c7.186,0,13.033,5.848,13.033,13.033v6.625
		C151.262,150.997,145.415,156.842,138.229,156.842 M137.797,127.151c-5.531,0-10.033,4.502-10.033,10.033v6.625
		c0,5.533,4.502,10.033,10.033,10.033h0.432c5.531,0,10.033-4.5,10.033-10.033v-6.625c0-5.531-4.502-10.033-10.033-10.033H137.797z"
		/>
	<path clip-path="url(#SVGID_4_)" fill="#FFFFFF" d="M161.862,183.774c-0.828,0-1.5-0.672-1.5-1.5v-1.127
		c0-14.236-7.379-23.801-18.361-23.801h-7.976c-10.983,0-18.362,9.564-18.362,23.801v1.127c0,0.828-0.672,1.5-1.5,1.5
		s-1.5-0.672-1.5-1.5v-1.127c0-15.781,8.785-26.801,21.362-26.801H142c12.578,0,21.361,11.02,21.361,26.801v1.127
		C163.362,183.102,162.69,183.774,161.862,183.774"/>
</g>
<g>
	<defs>
		<rect id="SVGID_5_" x="222.59" y="118.947" width="75.55" height="76.723"/>
	</defs>
	<clipPath id="SVGID_6_">
		<use xlink:href="#SVGID_5_"  overflow="visible"/>
	</clipPath>
	<path clip-path="url(#SVGID_6_)" fill="#FFFFFF" d="M268.221,146.353v0.538c0,0.83,0.671,1.5,1.5,1.5c0.827,0,1.5-0.67,1.5-1.5
		v-0.538c0-6.546-3.03-11.468-7.678-13.039c1.175-1.254,1.901-2.933,1.901-4.781v-2.58c0-3.862-3.144-7.006-7.005-7.006h-0.206
		c-3.862,0-7.005,3.144-7.005,7.006v2.58c0,1.849,0.726,3.527,1.9,4.781c-4.646,1.571-7.676,6.493-7.676,13.039v0.538
		c0,0.83,0.671,1.5,1.5,1.5c0.828,0,1.5-0.67,1.5-1.5v-0.538c0-6.326,3.207-10.576,7.98-10.576h3.806
		C265.013,135.777,268.221,140.027,268.221,146.353 M254.229,125.953c0-2.209,1.797-4.006,4.005-4.006h0.206
		c2.208,0,4.005,1.797,4.005,4.006v2.58c0,2.207-1.797,4.004-4.005,4.004h-0.206c-2.208,0-4.005-1.797-4.005-4.004V125.953z"/>
	<path clip-path="url(#SVGID_6_)" fill="#FFFFFF" d="M246.911,166.25c1.264-1.307,2.045-3.083,2.045-5.04v-2.699
		c0-4.004-3.257-7.262-7.26-7.262h-0.215c-4.004,0-7.262,3.258-7.262,7.262v2.699c0,1.957,0.783,3.733,2.047,5.04
		c-4.893,1.598-8.092,6.744-8.092,13.609v0.563c0,0.827,0.673,1.5,1.5,1.5c0.83,0,1.5-0.673,1.5-1.5v-0.563
		c0-6.661,3.386-11.137,8.422-11.137h3.982c5.037,0,8.422,4.476,8.422,11.137v0.563c0,0.827,0.672,1.5,1.5,1.5s1.5-0.673,1.5-1.5
		v-0.563C255,172.995,251.801,167.848,246.911,166.25 M237.219,158.511c0-2.35,1.912-4.262,4.262-4.262h0.215
		c2.35,0,4.26,1.912,4.26,4.262v2.699c0,2.351-1.91,4.262-4.26,4.262h-0.215c-2.35,0-4.262-1.911-4.262-4.262V158.511z"/>
	<path clip-path="url(#SVGID_6_)" fill="#FFFFFF" d="M280.407,166.25c1.265-1.307,2.046-3.083,2.046-5.04v-2.699
		c0-4.004-3.257-7.262-7.26-7.262h-0.215c-4.003,0-7.261,3.258-7.261,7.262v2.699c0,1.957,0.782,3.733,2.046,5.04
		c-4.893,1.598-8.09,6.744-8.09,13.609v0.563c0,0.827,0.671,1.5,1.5,1.5c0.828,0,1.5-0.673,1.5-1.5v-0.563
		c0-6.661,3.384-11.137,8.421-11.137h3.982c5.036,0,8.421,4.476,8.421,11.137v0.563c0,0.827,0.672,1.5,1.5,1.5s1.5-0.673,1.5-1.5
		v-0.563C288.498,172.995,285.299,167.848,280.407,166.25 M270.717,158.511c0-2.35,1.911-4.262,4.261-4.262h0.215
		c2.35,0,4.26,1.912,4.26,4.262v2.699c0,2.351-1.91,4.262-4.26,4.262h-0.215c-2.35,0-4.261-1.911-4.261-4.262V158.511z"/>
	<path clip-path="url(#SVGID_6_)" fill="#FFFFFF" d="M240.083,131.916l-0.236,2.07c-0.094,0.824,0.498,1.567,1.32,1.66
		c0.058,0.008,0.115,0.01,0.172,0.01c0.753,0,1.4-0.564,1.488-1.33l0.795-6.987l-6.709-1.142c-0.812-0.141-1.59,0.41-1.729,1.228
		c-0.14,0.815,0.41,1.591,1.227,1.729l2.209,0.375c-9.938,6.59-16.029,17.816-16.029,29.816c0,3.406,0.479,6.776,1.423,10.016
		l2.688-0.782c-0.871-2.985-1.312-6.094-1.312-9.233C225.39,148.317,230.97,137.998,240.083,131.916"/>
	<path clip-path="url(#SVGID_6_)" fill="#FFFFFF" d="M258.336,192.869c-6.008,0-11.889-1.634-17.006-4.723
		c-0.64-0.385-1.258-0.809-1.871-1.239l2.289-0.175c0.826-0.063,1.445-0.783,1.383-1.608c-0.063-0.827-0.786-1.447-1.609-1.383
		l-7.013,0.533l0.141,6.805c0.019,0.816,0.687,1.469,1.499,1.469h0.033c0.828-0.018,1.484-0.703,1.467-1.532l-0.041-1.972
		c0.742,0.528,1.499,1.032,2.275,1.5c5.554,3.353,11.934,5.126,18.453,5.126c8.887,0,17.404-3.282,23.986-9.242l-1.88-2.077
		C274.378,189.844,266.527,192.869,258.336,192.869"/>
	<path clip-path="url(#SVGID_6_)" fill="#FFFFFF" d="M297.8,162.071c-0.522-0.641-1.468-0.735-2.109-0.212l-1.854,1.517
		c0.15-1.334,0.246-2.684,0.246-4.03c0-12.616-6.763-24.432-17.649-30.833l-1.421,2.413c10.035,5.902,16.271,16.791,16.271,28.42
		c0,1.122-0.076,2.244-0.19,3.356l-1.303-1.426c-0.559-0.613-1.507-0.655-2.119-0.095c-0.611,0.558-0.654,1.508-0.095,2.119
		l4.745,5.189l5.268-4.308C298.231,163.657,298.326,162.713,297.8,162.071 M292.401,164.13l0.438,0.062l-0.218,0.179L292.401,164.13
		z"/>
</g>
<g>
	<defs>
		<rect id="SVGID_7_" x="326.081" y="124.012" width="66.284" height="65.199"/>
	</defs>
	<clipPath id="SVGID_8_">
		<use xlink:href="#SVGID_7_"  overflow="visible"/>
	</clipPath>
	<path clip-path="url(#SVGID_8_)" fill="#FFFFFF" d="M368.788,166.741l-8.417-5.818v-9.988c0-0.773-0.627-1.398-1.399-1.398
		c-0.774,0-1.4,0.625-1.4,1.398v10.039l-7.746,6.074c-0.607,0.479-0.715,1.357-0.236,1.965c0.274,0.354,0.686,0.537,1.102,0.537
		c0.302,0,0.607-0.098,0.863-0.299l7.47-5.857l8.172,5.65c0.243,0.168,0.521,0.248,0.795,0.248c0.444,0,0.881-0.211,1.152-0.604
		C369.583,168.053,369.423,167.18,368.788,166.741"/>
	<path clip-path="url(#SVGID_8_)" fill="#FFFFFF" d="M344.816,173.538c1.265-1.307,2.046-3.082,2.046-5.039v-2.699
		c0-4.004-3.258-7.262-7.261-7.262h-0.216c-4.002,0-7.26,3.258-7.26,7.262v2.699c0,1.957,0.781,3.732,2.045,5.039
		c-4.891,1.598-8.09,6.746-8.09,13.609v0.564c0,0.828,0.672,1.5,1.5,1.5s1.5-0.672,1.5-1.5v-0.564
		c0-6.662,3.385-11.137,8.422-11.137h3.982c5.036,0,8.422,4.475,8.422,11.137v0.564c0,0.828,0.67,1.5,1.5,1.5
		c0.827,0,1.5-0.672,1.5-1.5v-0.564C352.907,180.284,349.708,175.135,344.816,173.538 M343.862,168.499c0,2.35-1.91,4.26-4.261,4.26
		h-0.216c-2.35,0-4.26-1.91-4.26-4.26v-2.699c0-2.35,1.91-4.262,4.26-4.262h0.216c2.351,0,4.261,1.912,4.261,4.262V168.499z"/>
	<path clip-path="url(#SVGID_8_)" fill="#FFFFFF" d="M384.274,173.538c1.264-1.307,2.046-3.082,2.046-5.039v-2.699
		c0-4.004-3.257-7.262-7.261-7.262h-0.215c-4.003,0-7.26,3.258-7.26,7.262v2.699c0,1.957,0.781,3.732,2.046,5.039
		c-4.893,1.598-8.09,6.746-8.09,13.609v0.564c0,0.828,0.671,1.5,1.5,1.5c0.827,0,1.5-0.672,1.5-1.5v-0.564
		c0-6.662,3.384-11.137,8.421-11.137h3.982c5.036,0,8.421,4.475,8.421,11.137v0.564c0,0.828,0.671,1.5,1.5,1.5
		c0.828,0,1.5-0.672,1.5-1.5v-0.564C392.365,180.284,389.167,175.135,384.274,173.538 M383.32,168.499c0,2.35-1.911,4.26-4.261,4.26
		h-0.215c-2.35,0-4.26-1.91-4.26-4.26v-2.699c0-2.35,1.91-4.262,4.26-4.262h0.215c2.35,0,4.261,1.912,4.261,4.262V168.499z"/>
	<path clip-path="url(#SVGID_8_)" fill="#FFFFFF" d="M369.463,152.622v0.563c0,0.83,0.672,1.5,1.5,1.5c0.829,0,1.5-0.67,1.5-1.5
		v-0.563c0-6.865-3.197-12.012-8.09-13.609c1.264-1.307,2.046-3.082,2.046-5.039v-2.701c0-4.002-3.258-7.26-7.261-7.26h-0.215
		c-4.004,0-7.26,3.258-7.26,7.26v2.701c0,1.957,0.781,3.732,2.045,5.039c-4.891,1.598-8.09,6.744-8.09,13.609v0.563
		c0,0.83,0.672,1.5,1.5,1.5s1.5-0.67,1.5-1.5v-0.563c0-6.662,3.385-11.137,8.42-11.137h3.983
		C366.08,141.485,369.463,145.959,369.463,152.622 M363.419,133.973c0,2.35-1.911,4.26-4.261,4.26h-0.215
		c-2.35,0-4.26-1.91-4.26-4.26v-2.701c0-2.35,1.91-4.26,4.26-4.26h0.215c2.35,0,4.261,1.91,4.261,4.26V133.973z"/>
</g>
<g>
	<defs>
		<rect id="SVGID_9_" x="420.843" y="119.696" width="70.606" height="68.521"/>
	</defs>
	<clipPath id="SVGID_10_">
		<use xlink:href="#SVGID_9_"  overflow="visible"/>
	</clipPath>
	<path clip-path="url(#SVGID_10_)" fill="#FFFFFF" d="M442.729,165.401h-0.364c-6.215,0-11.271-5.055-11.271-11.269v-5.612
		c0-6.214,5.056-11.27,11.271-11.27h0.364c6.215,0,11.271,5.056,11.271,11.27v5.612C454,160.346,448.944,165.401,442.729,165.401
		 M442.365,140.25c-4.561,0-8.271,3.71-8.271,8.27v5.612c0,4.559,3.71,8.269,8.271,8.269h0.364c4.561,0,8.271-3.71,8.271-8.269
		v-5.612c0-4.56-3.711-8.27-8.271-8.27H442.365z"/>
	<path clip-path="url(#SVGID_10_)" fill="#FFFFFF" d="M462.75,188.216c-0.828,0-1.5-0.672-1.5-1.5v-0.956
		c0-11.922-6.158-19.933-15.326-19.933h-6.756c-9.166,0-15.324,8.011-15.324,19.933v0.956c0,0.828-0.672,1.5-1.5,1.5
		s-1.5-0.672-1.5-1.5v-0.956c0-13.502,7.534-22.933,18.324-22.933h6.756c10.79,0,18.326,9.431,18.326,22.933v0.956
		C464.25,187.544,463.579,188.216,462.75,188.216"/>
	<path clip-path="url(#SVGID_10_)" fill="#FFFFFF" d="M477.054,160.7h-11.61v-1.15c0-2.499-1.666-6.212-3.637-8.107
		c-2.695-2.594-4.241-6.258-4.241-10.055c0-3.775,1.529-7.427,4.194-10.017c2.585-2.513,5.953-3.854,9.521-3.737
		c3.462-0.101,6.872,1.225,9.456,3.737c2.665,2.59,4.195,6.241,4.195,10.017c0,3.797-1.547,7.461-4.242,10.053
		c-1.972,1.897-3.637,5.61-3.637,8.109V160.7z M467.667,158.4h7.163c0.38-2.968,2.117-6.55,4.268-8.616
		c2.245-2.161,3.533-5.221,3.533-8.396c0-3.205-1.24-6.176-3.496-8.367c-2.135-2.075-4.943-3.172-7.854-3.088
		c-3.031-0.086-5.784,1.014-7.918,3.088c-2.256,2.191-3.497,5.162-3.497,8.367c0,3.176,1.288,6.236,3.533,8.396
		C465.549,151.85,467.288,155.432,467.667,158.4"/>
	<path clip-path="url(#SVGID_10_)" fill="#FFFFFF" d="M475.074,164.084h-7.629c-0.635,0-1.149-0.516-1.149-1.149
		c0-0.636,0.515-1.15,1.149-1.15h7.629c0.635,0,1.15,0.515,1.15,1.15C476.224,163.569,475.708,164.084,475.074,164.084"/>
	<path clip-path="url(#SVGID_10_)" fill="#FFFFFF" d="M471.097,168.612c-2.055,0-3.686-0.894-4.498-1.648
		c-0.465-0.433-0.491-1.161-0.06-1.625c0.431-0.464,1.156-0.491,1.62-0.064c0.123,0.108,2.694,2.345,6.264-0.102
		c0.526-0.359,1.239-0.225,1.599,0.298c0.359,0.525,0.226,1.241-0.298,1.6C474.07,168.204,472.487,168.612,471.097,168.612"/>
	<path clip-path="url(#SVGID_10_)" fill="#FFFFFF" d="M463.455,139.217c-0.553,0-1-0.446-1-1c0-3.266,2.657-5.922,5.923-5.922
		c0.554,0,1,0.447,1,1s-0.446,1-1,1c-2.163,0-3.923,1.761-3.923,3.922C464.455,138.771,464.007,139.217,463.455,139.217"/>
	<path clip-path="url(#SVGID_10_)" fill="#FFFFFF" d="M476.208,143.997c-0.516-0.188-1.093,0.078-1.282,0.596l-0.405,1.109
		c-1.809-0.034-2.033-0.332-2.305-0.698l-0.153-0.205c-0.248-0.315-0.63-0.476-1.033-0.438c-0.393,0.043-0.731,0.278-0.905,0.633
		c-0.201,0.41-1.326,0.678-2.393,0.715l-0.321-0.856c-0.193-0.518-0.77-0.778-1.288-0.585c-0.517,0.194-0.777,0.77-0.585,1.287
		l2.245,5.984c0.151,0.4,0.532,0.648,0.938,0.648c0.116,0,0.234-0.021,0.351-0.064c0.517-0.193,0.779-0.771,0.585-1.286
		l-1.188-3.169c0.854-0.083,1.903-0.305,2.671-0.873c0.553,0.502,1.291,0.779,2.661,0.873l-1.162,3.176
		c-0.191,0.518,0.075,1.092,0.594,1.283c0.114,0.041,0.229,0.061,0.344,0.061c0.407,0,0.791-0.252,0.939-0.656l2.29-6.25
		C476.993,144.762,476.727,144.186,476.208,143.997"/>
	<path clip-path="url(#SVGID_10_)" fill="#FFFFFF" d="M467.062,124.784c-0.528,0-1.015-0.354-1.158-0.889l-0.69-2.574
		c-0.172-0.641,0.208-1.299,0.849-1.471c0.632-0.171,1.298,0.207,1.471,0.848l0.689,2.574c0.172,0.641-0.208,1.299-0.848,1.471
		C467.27,124.77,467.167,124.784,467.062,124.784"/>
	<path clip-path="url(#SVGID_10_)" fill="#FFFFFF" d="M459.458,129.303c-0.308,0-0.614-0.116-0.849-0.352l-1.883-1.884
		c-0.47-0.469-0.47-1.229,0-1.698c0.469-0.468,1.229-0.466,1.696,0l1.885,1.885c0.468,0.47,0.468,1.229,0,1.697
		C460.073,129.187,459.766,129.303,459.458,129.303"/>
	<path clip-path="url(#SVGID_10_)" fill="#FFFFFF" d="M454.792,136.862c-0.114,0-0.229-0.018-0.346-0.053l-2.552-0.768
		c-0.635-0.191-0.994-0.861-0.803-1.495s0.859-0.993,1.494-0.803l2.553,0.769c0.633,0.191,0.993,0.86,0.803,1.495
		C455.785,136.526,455.309,136.862,454.792,136.862"/>
	<path clip-path="url(#SVGID_10_)" fill="#FFFFFF" d="M487.699,136.196c-0.516,0-0.992-0.336-1.147-0.854
		c-0.192-0.634,0.168-1.303,0.801-1.495l2.551-0.769c0.643-0.19,1.305,0.169,1.495,0.803c0.192,0.634-0.168,1.304-0.802,1.495
		l-2.55,0.77C487.929,136.178,487.813,136.196,487.699,136.196"/>
	<path clip-path="url(#SVGID_10_)" fill="#FFFFFF" d="M483.624,128.997c-0.308,0-0.614-0.117-0.849-0.352
		c-0.468-0.469-0.468-1.229,0-1.697l1.885-1.885c0.471-0.469,1.231-0.467,1.697,0c0.469,0.469,0.469,1.229,0,1.698l-1.884,1.884
		C484.238,128.879,483.931,128.997,483.624,128.997"/>
	<path clip-path="url(#SVGID_10_)" fill="#FFFFFF" d="M475.909,124.67c-0.103,0-0.207-0.012-0.312-0.041
		c-0.64-0.17-1.021-0.828-0.849-1.469l0.689-2.574c0.172-0.641,0.826-1.021,1.47-0.85c0.641,0.172,1.021,0.83,0.85,1.471
		l-0.69,2.574C476.924,124.317,476.438,124.67,475.909,124.67"/>
</g>
</svg>
