<?xml version="1.0" encoding="utf-8"?>
<!-- Generator: Adobe Illustrator 21.0.0, SVG Export Plug-In . SVG Version: 6.00 Build 0)  -->
<svg version="1.1" id="레이어_1" xmlns="http://www.w3.org/2000/svg" xmlns:xlink="http://www.w3.org/1999/xlink" x="0px"
	 y="0px" width="85.04px" height="85.04px" viewBox="0 0 85.04 85.04" enable-background="new 0 0 85.04 85.04"
	 xml:space="preserve">
<style type="text/css">
	.st0{fill:#EBBD1D;}
</style>
<g>
	<path class="st0" d="M74.1,22.5c1.9-1.2,3.1-3.6,3.1-6.4c0-3.7-2.4-6.4-5.8-6.4s-5.8,2.6-5.8,6.4c0,2.8,1.3,5.2,3.1,6.4
		c-3.9,0.6-7,3.4-7.7,7.1c-0.6-0.2-1.2-0.3-1.8-0.4c2.3-1.2,3.8-4,3.8-7.2c0-4.1-2.6-7-6.3-7s-6.3,2.9-6.3,7c0,0.8,0.1,1.6,0.3,2.3
		c-0.4-0.1-0.9-0.1-1.4-0.2c0.5-1.2,0.7-2.6,0.7-4.1c0-5.7-3.8-8.3-7.5-8.3S35,14.3,35,20c0,1.5,0.3,2.8,0.7,4.1
		c-0.5,0-0.9,0.1-1.4,0.2c0.2-0.7,0.3-1.5,0.3-2.3c0-4.1-2.6-7-6.3-7S22,17.8,22,22c0,3.3,1.6,6.1,3.8,7.3c-0.6,0.1-1.2,0.2-1.8,0.4
		c-0.7-3.6-3.8-6.5-7.7-7.1c1.9-1.2,3.1-3.6,3.1-6.4c0-3.7-2.4-6.4-5.8-6.4s-5.8,2.6-5.8,6.4c0,2.8,1.3,5.2,3.1,6.4
		C6.4,23.2,3,26.8,3,31.2v1.7c0,0.7,0.6,1.3,1.3,1.3s1.3-0.6,1.3-1.3v-1.7c0-3.5,3.1-6.3,6.9-6.3h2.4c3.6,0,6.5,2.5,6.8,5.7
		c-3,1.7-5,4.8-5,8.3v1.9c0,0.7,0.6,1.3,1.3,1.3s1.3-0.6,1.3-1.3v-1.9c0-2.1,1-4.1,2.7-5.4c0.7-0.5,1.5-1,2.3-1.3s1.7-0.5,2.7-0.5
		c-0.1,0.6-0.2,1.3-0.2,2v17.5c0,3.8,2.2,7.1,5.4,8.6V74c0,0.7,0.6,1.3,1.3,1.3s1.3-0.6,1.3-1.3V60.6V58V33.3v-0.6
		c0-0.7-0.6-1.3-1.3-1.3c-0.5,0-0.9,0.3-1.1,0.7c-0.1,0.2-0.2,0.4-0.2,0.6v24.2c-1.8-1.3-2.9-3.4-2.9-5.8V33.7c0-0.7,0.1-1.4,0.3-2
		c0.2-0.8,0.6-1.6,1.1-2.2c0.1-0.1,0.1-0.1,0.2-0.2c0.6-0.8,1.4-1.4,2.3-1.9c1-0.5,2.1-0.8,3.2-0.8h0.9c1.4,1.8,3.3,2.9,5.4,2.9
		c2.1,0,4-1.1,5.4-2.9H49c1.2,0,2.3,0.3,3.2,0.8s1.7,1.1,2.3,1.9c0.1,0.1,0.1,0.1,0.2,0.2c0.5,0.7,0.9,1.4,1.1,2.2
		c0.2,0.6,0.3,1.3,0.3,2v17.5c0,2.4-1.2,4.5-2.9,5.8V32.7c0-0.2-0.1-0.4-0.2-0.6c-0.2-0.4-0.6-0.7-1.1-0.7c-0.7,0-1.3,0.6-1.3,1.3
		v0.6v24.8v2.6v13.4c0,0.7,0.6,1.3,1.3,1.3s1.3-0.6,1.3-1.3V59.8c3.2-1.6,5.4-4.8,5.4-8.6V33.7c0-0.7-0.1-1.3-0.2-2
		c1,0,1.9,0.2,2.7,0.5c0.9,0.3,1.6,0.8,2.3,1.3c1.6,1.3,2.7,3.2,2.7,5.4v1.9c0,0.7,0.6,1.3,1.3,1.3s1.3-0.6,1.3-1.3v-1.9
		c0-3.5-2-6.6-5-8.3c0.3-3.2,3.3-5.7,6.8-5.7h2.4c3.8,0,6.9,2.8,6.9,6.3v1.7c0,0.7,0.6,1.3,1.3,1.3s1.3-0.6,1.3-1.3v-1.7
		C82,26.8,78.6,23.2,74.1,22.5z M10.3,16.1c0-2.4,1.3-3.9,3.3-3.9s3.3,1.5,3.3,3.9c0,2.6-1.5,4.8-3.3,4.8S10.3,18.7,10.3,16.1z
		 M29,27.4c-0.2,0.1-0.4,0.1-0.7,0.1c-2.1,0-3.8-2.5-3.8-5.5c0-2.8,1.5-4.5,3.8-4.5s3.8,1.7,3.8,4.5c0,1.3-0.3,2.6-0.9,3.5
		C30.4,26,29.7,26.6,29,27.4z M42.5,27c-0.6,0-1.2-0.2-1.7-0.4c-0.9-0.5-1.8-1.4-2.3-2.5c-0.6-1.1-0.9-2.5-0.9-4.1
		c0-3.5,1.9-5.8,5-5.8s5,2.2,5,5.8c0,1.5-0.3,2.9-0.9,4.1c-0.6,1.1-1.4,2-2.3,2.5C43.7,26.9,43.1,27,42.5,27z M52.8,22
		c0-2.8,1.5-4.5,3.8-4.5c2.4,0,3.8,1.7,3.8,4.5c0,3-1.8,5.5-3.8,5.5c-0.2,0-0.5,0-0.7-0.1c-0.6-0.7-1.4-1.4-2.3-1.9
		C53.2,24.5,52.8,23.3,52.8,22z M68.2,16.1c0-2.4,1.3-3.9,3.3-3.9s3.3,1.5,3.3,3.9c0,2.6-1.5,4.8-3.3,4.8S68.2,18.7,68.2,16.1z"/>
	<path class="st0" d="M42.5,56.4c-0.7,0-1.3,0.6-1.3,1.3v0.6v2.5v13.3c0,0.7,0.6,1.3,1.3,1.3s1.3-0.6,1.3-1.3V60.8v-2.5v-0.6
		C43.8,56.9,43.2,56.4,42.5,56.4z"/>
</g>
</svg>
